HIERARCHY
ROOT hip
{
	OFFSET	0.00  0.00  0.00 
	CHANNELS 6 Xposition Yposition Zposition Xrotation Zrotation Yrotation
	JOINT abdomen
	{
		OFFSET	0.000000 0.000000 0.000000
		CHANNELS 3 Xrotation Zrotation Yrotation
		JOINT chest
		{
			OFFSET	0.000000 5.018152 -1.882228
			CHANNELS 3 Xrotation Zrotation Yrotation
			JOINT neckDummy
			{
				OFFSET	0.000000 8.316447 0.784897
				CHANNELS 3 Xrotation Yrotation Zrotation
				JOINT neck
				{
					OFFSET	0.000000 2.280413 -0.392801
					CHANNELS 3 Xrotation Zrotation Yrotation
					JOINT head
					{
						OFFSET	0.000000 3.496879 0.529469
						CHANNELS 3 Xrotation Zrotation Yrotation
						JOINT figureHair
						{
							OFFSET	0.000000 4.699570 0.720622
							CHANNELS 3 Zrotation Yrotation Xrotation
							End Site
							{
								OFFSET 0.000000 -6.419331 0.000000
							}
						}
					}
				}
			}
			JOINT lCollar
			{
				OFFSET	0.599237 8.316447 0.784897
				CHANNELS 3 Yrotation Zrotation Xrotation
				JOINT lShldr
				{
					OFFSET	6.421198 0.010146 -0.332128
					CHANNELS 3 Zrotation Yrotation Xrotation
					JOINT lForeArm
					{
						OFFSET	10.552783 0.025574 0.125508
						CHANNELS 3 Yrotation Zrotation Xrotation
						JOINT lHand
						{
							OFFSET	11.035963 0.319619 0.041520
							CHANNELS 3 Zrotation Yrotation Xrotation
							End Site
							{
								OFFSET 10.353753 0.000000 0.000000
							}
						}
					}
				}
			}
			JOINT rCollar
			{
				OFFSET	-0.599237 8.316447 0.784897
				CHANNELS 3 Yrotation Zrotation Xrotation
				JOINT rShldr
				{
					OFFSET	-6.421198 0.010146 -0.332128
					CHANNELS 3 Zrotation Yrotation Xrotation
					JOINT rForeArm
					{
						OFFSET	-10.552783 0.025574 0.125508
						CHANNELS 3 Yrotation Zrotation Xrotation
						JOINT rHand
						{
							OFFSET	-11.035963 0.319619 0.041520
							CHANNELS 3 Zrotation Yrotation Xrotation
							End Site
							{
								OFFSET -10.353753 0.000000 0.000000
							}
						}
					}
				}
			}
		}
	}
	JOINT lThigh
	{
		OFFSET	4.500466 -6.400484 -1.832696
		CHANNELS 3 Xrotation Zrotation Yrotation
		JOINT lShin
		{
			OFFSET	-1.359117 -18.918689 1.179887
			CHANNELS 3 Xrotation Zrotation Yrotation
			JOINT lFoot
			{
				OFFSET	-0.652380 -17.215186 -0.312137
				CHANNELS 3 Xrotation Yrotation Zrotation
				End Site
				{
					OFFSET 0.000000 0.000000 10.353752
				}
			}
		}
	}
	JOINT rThigh
	{
		OFFSET	-4.500466 -6.400484 -1.832696
		CHANNELS 3 Xrotation Zrotation Yrotation
		JOINT rShin
		{
			OFFSET	1.359117 -18.918689 1.179887
			CHANNELS 3 Xrotation Zrotation Yrotation
			JOINT rFoot
			{
				OFFSET	0.652380 -17.215186 -0.312137
				CHANNELS 3 Xrotation Yrotation Zrotation
				End Site
				{
					OFFSET 0.000000 0.000000 10.353752
				}
			}
		}
	}
}
MOTION
Frames:     9
Frame Time: 0.066667
18.990026 42.639996 21.439974 178.867004 -171.815994 -3.878340 2.939450 -7.031250 3.261720 0.000000 0.000000 0.000000 0.000000 0.000000 0.000000 -13.281200 2.539060 6.855900 0.000000 0.000000 0.000000 0.000000 0.000000 0.000000 0.000000 0.000000 0.000000 -60.426201 10.094900 54.751301 -35.753799 19.356199 -2.938020 -15.679900 -13.144800 -25.373199 0.000000 0.000000 0.000000 59.153500 3.058850 55.729500 35.721001 -10.458500 6.306530 12.540800 6.157190 -14.213200 -10.902913 -3.690224 -0.977858 14.684154 -5.067404 0.353289 -4.372725 4.359847 -2.685599 -21.119951 -25.578569 -16.988625 26.310030 3.512888 -9.385162 1.323122 2.280950 6.692196 
18.600000 41.829998 21.600042 -3.857420 -17.236300 169.733002 -2.226560 -13.574200 8.222660 0.000000 0.000000 0.000000 0.000000 0.000000 0.000000 -10.654300 3.046880 11.065000 0.000000 0.000000 0.000000 0.000000 0.000000 0.000000 0.000000 0.000000 0.000000 -68.555099 13.112100 38.733101 -7.237100 6.637810 -11.072300 -11.258100 -7.913500 -12.999200 0.000000 0.000000 0.000000 64.903900 8.831520 55.773899 20.250900 -0.848153 4.993040 13.810100 -2.069810 -9.813830 -18.537241 -11.928971 -1.205792 21.322474 -8.415599 3.037037 -8.353844 10.935713 -0.020044 -38.298668 -44.048054 -14.643625 39.504047 8.150996 -10.211976 -0.471443 -1.072914 5.835473 
18.709957 41.769997 21.330015 -3.554690 -17.460899 166.113007 -1.367190 -14.257800 7.976110 0.000000 0.000000 0.000000 0.000000 0.000000 0.000000 -11.445300 1.474610 12.783200 0.000000 0.000000 0.000000 0.000000 0.000000 0.000000 0.000000 0.000000 0.000000 -68.054298 13.306900 35.766300 -4.401160 4.998020 -8.269750 -8.553180 -4.279570 -12.080400 0.000000 0.000000 0.000000 65.229401 9.411750 61.019699 27.144300 -1.445960 3.864650 14.832400 1.916490 -12.287900 -18.482803 -11.004963 1.893335 20.291803 -7.626688 3.517233 -7.123844 10.106786 -1.450128 -38.238026 -41.838707 -11.692113 37.428875 7.528282 -8.444421 -0.333444 0.255281 6.153078 
19.459984 42.239998 20.909964 3.007810 -5.683590 166.572006 7.792970 -7.968750 -0.186901 0.000000 0.000000 0.000000 0.000000 0.000000 0.000000 -8.818360 -1.152340 8.827930 0.000000 0.000000 0.000000 0.000000 0.000000 0.000000 0.000000 0.000000 0.000000 -70.254997 2.999170 48.728600 -12.865100 11.891700 1.930360 -8.283700 -1.260330 -16.842501 0.000000 0.000000 0.000000 65.141602 -1.567550 63.970200 28.007299 -10.904700 2.838980 14.343000 2.628120 -18.119101 -4.182822 0.349919 5.584867 12.585437 -2.707460 0.004573 -3.149188 3.136243 -4.230420 -10.691996 -22.025606 -11.872605 20.067448 2.832003 -3.635313 -0.393807 6.462766 8.615556 
19.900019 43.029995 20.660023 7.763670 2.656250 167.705994 13.720700 -2.900390 -5.253910 0.000000 0.000000 0.000000 0.000000 0.000000 0.000000 -6.855470 -2.822270 5.917970 0.000000 0.000000 0.000000 0.000000 0.000000 0.000000 0.000000 0.000000 0.000000 -71.310699 -4.724080 58.719601 -24.546301 17.882601 13.613500 -9.447810 0.822211 -19.844700 0.000000 0.000000 0.000000 63.534698 -10.528700 66.829903 32.733799 -19.825199 3.495230 13.300700 3.880590 -22.289700 6.483713 7.715268 9.913816 7.048896 0.547294 -2.879840 -0.570281 -2.010579 -5.947365 7.351866 -8.847123 -5.987295 7.464380 0.476788 0.461543 -0.587461 10.775302 10.416344 
19.950026 43.339996 20.640041 8.847660 4.335940 167.862000 15.175800 -1.835940 -6.152660 0.000000 0.000000 0.000000 0.000000 0.000000 0.000000 -7.578130 -3.203130 5.565860 0.000000 0.000000 0.000000 0.000000 0.000000 0.000000 0.000000 0.000000 0.000000 -67.497597 -7.593420 63.900299 -39.150398 24.224100 23.163601 -11.765500 2.417700 -16.343800 0.000000 0.000000 0.000000 56.223000 -19.309500 69.354797 50.568501 -28.433701 11.894600 9.842690 6.849170 -22.337601 8.512378 8.943157 10.630087 6.267197 1.270084 -3.746588 -0.051138 -2.440891 -6.202155 10.758735 -6.346329 -4.323820 6.107991 -0.264187 1.618600 -1.464306 11.972719 11.245303 
19.760036 42.799995 20.850016 7.792970 3.593750 166.475006 15.468700 -0.400391 -6.611330 0.000000 0.000000 0.000000 0.000000 0.000000 0.000000 -12.880900 -4.716800 8.417970 0.000000 0.000000 0.000000 0.000000 0.000000 0.000000 0.000000 0.000000 0.000000 -65.380096 -7.112410 65.091202 -59.895699 32.679901 33.684200 -6.978090 3.411110 -12.967200 0.000000 0.000000 0.000000 49.497501 -26.502701 69.163399 69.756203 -33.136700 23.351500 2.403590 11.771300 -21.628300 3.688627 7.848346 7.069758 12.788655 1.646633 -2.244072 -2.929594 0.416338 -6.073399 3.493510 -6.362918 -5.897867 16.842581 -2.666573 5.231198 -6.152430 12.309726 12.910046 
18.999966 41.919994 21.389963 4.023440 2.714840 164.979996 16.113300 4.570310 -8.769530 0.000000 0.000000 0.000000 0.000000 0.000000 0.000000 -23.359400 -6.875000 15.234400 0.000000 0.000000 0.000000 0.000000 0.000000 0.000000 0.000000 0.000000 0.000000 -66.419998 -4.579880 64.540398 -84.738098 37.731300 44.595699 13.890100 0.136655 -21.355801 0.000000 0.000000 0.000000 47.057400 -27.685499 66.204002 81.713997 -35.508999 28.059900 -10.320300 16.141100 -25.797501 -12.365309 6.880503 0.613143 33.628784 0.891200 -0.227069 -10.642196 4.958405 -5.300213 -9.804424 -5.634606 -5.712381 32.137165 -6.122627 7.824048 -11.143733 11.576758 13.496038 
18.820017 40.159996 21.620024 1.728520 4.394530 166.729004 18.515600 11.132800 -9.646550 0.000000 0.000000 0.000000 0.000000 0.000000 0.000000 -32.285198 -6.230470 18.574200 0.000000 0.000000 0.000000 0.000000 0.000000 0.000000 0.000000 0.000000 0.000000 -60.489899 -4.404850 65.479202 -105.623001 37.319000 56.774200 20.406200 -5.915980 -21.807400 0.000000 0.000000 0.000000 47.051201 -20.301600 62.109402 92.393501 -36.597500 33.445099 -13.899500 21.756701 -27.622900 -23.244909 10.709432 1.342704 47.863506 0.611631 -3.408082 -14.530471 3.344642 -4.007553 -16.481491 -3.124493 -6.622722 40.460155 -5.984234 5.967113 -15.180872 10.693178 10.929883 
